<svg width="13" height="22" viewBox="0 0 13 22" fill="none" xmlns="http://www.w3.org/2000/svg">
<path d="M6.5 3.32798C7.82292 3.32798 8.89879 4.38262 8.89879 5.67944C8.89879 6.97235 7.82292 8.02699 6.5 8.02699C5.17708 8.02699 4.10121 6.97235 4.10121 5.67944C4.10121 4.38262 5.17708 3.32798 6.5 3.32798ZM6.5 11.355C9.69573 11.355 12.2938 8.8082 12.2938 5.67944C12.2938 2.54676 9.69573 0 6.5 0C3.30427 0 0.710234 2.54676 0.710234 5.67944C0.710234 8.8082 3.30427 11.355 6.5 11.355ZM8.843 15.9876C10.0225 15.722 11.1581 15.2649 12.2061 14.6204C12.999 14.1322 13.2381 13.1049 12.74 12.3276C12.238 11.5464 11.194 11.312 10.397 11.8042C8.02614 13.265 4.97386 13.265 2.59898 11.8042C1.80603 11.312 0.758051 11.5464 0.259964 12.3276C-0.238124 13.1049 0.000957687 14.1322 0.793913 14.6204C1.84189 15.2649 2.97753 15.722 4.157 15.9876L0.917438 19.1593C0.255978 19.8077 0.255978 20.8624 0.917438 21.5108C1.25215 21.835 1.6825 21.999 2.11683 21.999C2.55116 21.999 2.9855 21.835 3.32021 21.5108L6.5 18.3937L9.68377 21.5108C10.3452 22.1631 11.4171 22.1631 12.0826 21.5108C12.744 20.8624 12.744 19.8077 12.0826 19.1593L8.843 15.9876Z" fill="#316DC2"/>
</svg>
