<svg width="20" height="21" viewBox="0 0 20 21" fill="none" xmlns="http://www.w3.org/2000/svg">
<path d="M11.9453 0C11.304 0 10.7021 0.34161 10.3161 0.834247C9.93009 1.32688 9.71732 1.9274 9.56231 2.56027C9.31611 3.57791 9.24012 4.70702 9.22188 5.72466C7.41944 5.85051 5.78722 6.41147 4.43159 7.27808C3.88143 6.79264 3.21882 6.52295 2.58356 6.53014C1.86015 6.53733 1.17322 6.86455 0.662576 7.53699C-0.313112 8.82072 -0.200649 10.9207 0.930054 12.1685C0.860145 12.5533 0.808473 12.9488 0.808473 13.3479C0.808473 17.5767 4.92399 21 10 21C15.076 21 19.1915 17.5731 19.1915 13.3479C19.1915 12.9488 19.1399 12.5533 19.0699 12.1685C20.2006 10.9207 20.3131 8.82072 19.3374 7.53699C18.8268 6.86455 18.1399 6.53733 17.4164 6.53014C16.7812 6.52295 16.1186 6.79264 15.5684 7.27808C14.2189 6.41507 12.5958 5.85411 10.8024 5.72466C10.8268 4.78613 10.8906 3.81164 11.0699 3.07808C11.1824 2.61781 11.3161 2.28339 11.459 2.1C11.6018 1.91661 11.7052 1.8411 11.9453 1.8411C12.4651 1.8411 12.5319 2.01729 12.845 2.44521C13.0031 2.66096 13.1854 2.93065 13.4772 3.19315C13.769 3.45565 14.2006 3.68219 14.6687 3.68219V1.8411C14.538 1.8411 14.5137 1.8375 14.4256 1.75479C14.3374 1.67209 14.2158 1.48151 14.0365 1.23699C13.6778 0.74435 12.9818 0 11.9453 0ZM17.0031 0.172603C15.7933 0.172603 14.8146 1.33048 14.8146 2.76164C14.8146 4.19281 15.7933 5.35069 17.0031 5.35069C18.2128 5.35069 19.1915 4.19281 19.1915 2.76164C19.1915 1.33048 18.2128 0.172603 17.0031 0.172603ZM17.0031 1.09315C17.7812 1.09315 18.4134 1.8411 18.4134 2.76164C18.4134 3.68219 17.7812 4.43014 17.0031 4.43014C16.225 4.43014 15.5927 3.68219 15.5927 2.76164C15.5927 1.8411 16.225 1.09315 17.0031 1.09315ZM10 7.16301C14.307 7.16301 17.9514 10.0002 17.9514 13.3479C17.9514 16.6993 14.307 19.5329 10 19.5329C5.69299 19.5329 2.0486 16.6993 2.0486 13.3479C2.0486 10.0002 5.69299 7.16301 10 7.16301ZM2.60787 7.99726C2.82368 8.00086 3.0486 8.05839 3.26441 8.16986C2.48325 8.87106 1.86319 9.67654 1.44069 10.5863C1.1489 9.87432 1.22793 8.98613 1.58659 8.51507C1.84799 8.16986 2.20969 7.99366 2.60787 7.99726ZM17.3921 7.99726C17.7903 7.99366 18.152 8.16986 18.4134 8.51507C18.7721 8.98613 18.8511 9.87432 18.5593 10.5863C18.1368 9.67654 17.5167 8.87106 16.7356 8.16986C16.9514 8.05839 17.1763 8.00086 17.3921 7.99726ZM6.88753 10.2986C6.10941 10.2986 5.47719 11.0466 5.47719 11.9671C5.47719 12.8877 6.10941 13.6356 6.88753 13.6356C7.66564 13.6356 8.29786 12.8877 8.29786 11.9671C8.29786 11.0466 7.66564 10.2986 6.88753 10.2986ZM13.1125 10.2986C12.3344 10.2986 11.7021 11.0466 11.7021 11.9671C11.7021 12.8877 12.3344 13.6356 13.1125 13.6356C13.8906 13.6356 14.5228 12.8877 14.5228 11.9671C14.5228 11.0466 13.8906 10.2986 13.1125 10.2986ZM6.13372 15.9658C6.62917 17.1776 8.16109 18.3534 10 18.3534C11.8389 18.3534 13.3952 17.1776 13.8906 15.9658C12.9909 16.6526 11.5714 17.1164 10 17.1164C8.42857 17.1164 7.03342 16.6526 6.13372 15.9658Z" fill="#316DC2"/>
</svg>
